<svg xmlns="http://www.w3.org/2000/svg" xmlns:xlink="http://www.w3.org/1999/xlink" viewBox="0 0 1323.69 1534.16"><defs><style>.cls-1{isolation:isolate;}.cls-2{fill:#59caaf;}.cls-10,.cls-11,.cls-12,.cls-13,.cls-14,.cls-15,.cls-16,.cls-17,.cls-18,.cls-19,.cls-2,.cls-20,.cls-21,.cls-22,.cls-23,.cls-24,.cls-25,.cls-26,.cls-27,.cls-28,.cls-29,.cls-3,.cls-30,.cls-31,.cls-32,.cls-33,.cls-34,.cls-35,.cls-36,.cls-37,.cls-38,.cls-39,.cls-4,.cls-40,.cls-41,.cls-42,.cls-43,.cls-44,.cls-45,.cls-46,.cls-47,.cls-48,.cls-49,.cls-5,.cls-50,.cls-51,.cls-52,.cls-53,.cls-54,.cls-55,.cls-56,.cls-57,.cls-58,.cls-59,.cls-6,.cls-60,.cls-61,.cls-62,.cls-63,.cls-64,.cls-65,.cls-66,.cls-67,.cls-68,.cls-7,.cls-8,.cls-9{fill-rule:evenodd;}.cls-2,.cls-26,.cls-52{opacity:0.35;}.cls-2,.cls-20,.cls-26,.cls-29,.cls-42,.cls-52{mix-blend-mode:multiply;}.cls-3{fill:url(#linear-gradient);}.cls-4{fill:url(#linear-gradient-2);}.cls-5{fill:#4a9ff8;}.cls-6{fill:#d0e7ff;}.cls-7{fill:#fff;}.cls-8{fill:url(#linear-gradient-3);}.cls-9{fill:#6d6afd;opacity:0.2;}.cls-10{fill:url(#linear-gradient-4);}.cls-11,.cls-52{fill:#4165f3;}.cls-12{fill:#22d2fb;}.cls-13{fill:url(#linear-gradient-5);}.cls-14{fill:#0a3c5f;}.cls-15{fill:#1466a0;}.cls-16{fill:#daeafa;}.cls-17{fill:#b4cce5;}.cls-18{fill:#12a3eb;}.cls-19{fill:#1c8df3;}.cls-20,.cls-42{opacity:0.5;}.cls-20{fill:url(#linear-gradient-6);}.cls-21{fill:url(#linear-gradient-7);}.cls-22{fill:#fffcf1;}.cls-23{fill:#ffa495;}.cls-24{fill:#193161;}.cls-25{fill:url(#linear-gradient-8);}.cls-26{fill:#6266d7;}.cls-27{fill:url(#linear-gradient-9);}.cls-28{fill:url(#GradientFill_15);}.cls-29{fill:#1e2353;opacity:0.3;}.cls-30{fill:url(#linear-gradient-10);}.cls-31{fill:url(#GradientFill_15-2);}.cls-32{fill:url(#linear-gradient-11);}.cls-33{fill:#ffa698;}.cls-34{fill:url(#linear-gradient-12);}.cls-35{fill:url(#linear-gradient-13);}.cls-36{fill:#ffb49c;}.cls-37{fill:#ff9d8e;}.cls-38{fill:#562e65;}.cls-39{fill:url(#linear-gradient-14);}.cls-40{fill:url(#linear-gradient-15);}.cls-41{fill:url(#linear-gradient-16);}.cls-42{fill:url(#linear-gradient-17);}.cls-43{fill:#ff9281;}.cls-44{fill:url(#linear-gradient-18);}.cls-45{fill:#1f202b;}.cls-46{fill:#161a40;}.cls-47{fill:#161f69;}.cls-48{fill:url(#linear-gradient-19);}.cls-49{fill:url(#linear-gradient-20);}.cls-50{fill:url(#linear-gradient-21);}.cls-51{fill:url(#linear-gradient-22);}.cls-53{fill:url(#linear-gradient-23);}.cls-54{fill:#06c0e1;}.cls-55{fill:url(#linear-gradient-24);}.cls-56{fill:url(#linear-gradient-25);}.cls-57{fill:url(#linear-gradient-26);}.cls-58{fill:url(#linear-gradient-27);}.cls-59{fill:#fdbebe;}.cls-60{fill:url(#linear-gradient-28);}.cls-61{fill:url(#GradientFill_17);}.cls-62{fill:#1994f0;}.cls-63{fill:url(#linear-gradient-29);}.cls-64{fill:#00edff;}.cls-65{fill:#0d7ae9;}.cls-66{fill:#494cec;}.cls-67{fill:url(#linear-gradient-30);}.cls-68{fill:#aab4ff;}</style><linearGradient id="linear-gradient" x1="774.91" y1="522.95" x2="589.93" y2="1218.04" gradientUnits="userSpaceOnUse"><stop offset="0" stop-color="#d1e8ff"/><stop offset="1" stop-color="#eaefff"/></linearGradient><linearGradient id="linear-gradient-2" x1="804.81" y1="265.45" x2="566.34" y2="1376.38" gradientUnits="userSpaceOnUse"><stop offset="0" stop-color="#6d6afe"/><stop offset="1" stop-color="#3fb0f7"/></linearGradient><linearGradient id="linear-gradient-3" x1="849.17" y1="81.54" x2="854.85" y2="29.52" xlink:href="#linear-gradient-2"/><linearGradient id="linear-gradient-4" x1="826.65" y1="168.42" x2="839.04" y2="114.9" xlink:href="#linear-gradient-2"/><linearGradient id="linear-gradient-5" x1="527.37" y1="716.96" x2="513.32" y2="829.7" gradientUnits="userSpaceOnUse"><stop offset="0" stop-color="#fd90da"/><stop offset="1" stop-color="#8e6dfd"/></linearGradient><linearGradient id="linear-gradient-6" x1="506.74" y1="573.11" x2="581.78" y2="322.12" gradientUnits="userSpaceOnUse"><stop offset="0" stop-color="#965cf2"/><stop offset="1" stop-color="#ff8adc"/></linearGradient><linearGradient id="linear-gradient-7" x1="485.2" y1="320.42" x2="399.65" y2="601.39" xlink:href="#linear-gradient-2"/><linearGradient id="linear-gradient-8" x1="254.66" y1="673.08" x2="238.62" y2="813.96" gradientUnits="userSpaceOnUse"><stop offset="0" stop-color="#a77ef7"/><stop offset="1" stop-color="#5e65d6"/></linearGradient><linearGradient id="linear-gradient-9" x1="320.95" y1="897.79" x2="283.09" y2="1078.97" gradientUnits="userSpaceOnUse"><stop offset="0" stop-color="#40457f"/><stop offset="1" stop-color="#1e2353"/></linearGradient><linearGradient id="GradientFill_15" x1="329.29" y1="1129.54" x2="315.07" y2="1149.94" gradientUnits="userSpaceOnUse"><stop offset="0" stop-color="#3773b9"/><stop offset="1" stop-color="#003c76"/></linearGradient><linearGradient id="linear-gradient-10" x1="354.71" y1="918.25" x2="225.57" y2="1094.38" xlink:href="#linear-gradient-9"/><linearGradient id="GradientFill_15-2" x1="256.47" y1="1171.14" x2="234.98" y2="1176.63" xlink:href="#GradientFill_15"/><linearGradient id="linear-gradient-11" x1="326.6" y1="685.54" x2="307.91" y2="849.4" xlink:href="#linear-gradient-8"/><linearGradient id="linear-gradient-12" x1="327.53" y1="637.81" x2="321.71" y2="652.42" gradientUnits="userSpaceOnUse"><stop offset="0" stop-color="#ff8a78"/><stop offset="1" stop-color="#ffa799"/></linearGradient><linearGradient id="linear-gradient-13" x1="347.22" y1="596.91" x2="338.65" y2="613.37" gradientUnits="userSpaceOnUse"><stop offset="0" stop-color="#ffb89e"/><stop offset="1" stop-color="#ffa799"/></linearGradient><linearGradient id="linear-gradient-14" x1="329.06" y1="556.88" x2="291.21" y2="578.56" gradientUnits="userSpaceOnUse"><stop offset="0" stop-color="#8a4791"/><stop offset="1" stop-color="#562e65"/></linearGradient><linearGradient id="linear-gradient-15" x1="548.89" y1="608.47" x2="556.67" y2="619.26" xlink:href="#linear-gradient-13"/><linearGradient id="linear-gradient-16" x1="444.63" y1="681.72" x2="459.02" y2="729.7" xlink:href="#linear-gradient-8"/><linearGradient id="linear-gradient-17" x1="919.93" y1="836.68" x2="853.53" y2="588.03" xlink:href="#linear-gradient-6"/><linearGradient id="linear-gradient-18" x1="903.22" y1="934.5" x2="943.16" y2="912.13" gradientUnits="userSpaceOnUse"><stop offset="0" stop-color="#1c8ef4"/><stop offset="1" stop-color="#00cfdd"/></linearGradient><linearGradient id="linear-gradient-19" x1="892.58" y1="1151.71" x2="805.33" y2="1311.98" gradientUnits="userSpaceOnUse"><stop offset="0" stop-color="#3e4795"/><stop offset="1" stop-color="#273088"/></linearGradient><linearGradient id="linear-gradient-20" x1="927.71" y1="1174.17" x2="863.6" y2="1334.38" xlink:href="#linear-gradient-19"/><linearGradient id="linear-gradient-21" x1="887.97" y1="987.21" x2="885.63" y2="1114.3" xlink:href="#linear-gradient-18"/><linearGradient id="linear-gradient-22" x1="901.64" y1="1002.41" x2="1021.71" y2="974.1" xlink:href="#linear-gradient-18"/><linearGradient id="linear-gradient-23" x1="884.57" y1="968.27" x2="895.41" y2="985.69" xlink:href="#linear-gradient-12"/><linearGradient id="linear-gradient-24" x1="874.46" y1="914.15" x2="850.19" y2="1064.25" gradientUnits="userSpaceOnUse"><stop offset="0" stop-color="#5a2d68"/><stop offset="1" stop-color="#22043d"/></linearGradient><linearGradient id="linear-gradient-25" x1="958.67" y1="747.03" x2="967.78" y2="673.69" xlink:href="#linear-gradient-2"/><linearGradient id="linear-gradient-26" x1="856.65" y1="783.97" x2="866.93" y2="739.6" xlink:href="#linear-gradient-2"/><linearGradient id="linear-gradient-27" x1="1182.68" y1="511.18" x2="1222.3" y2="585.17" gradientUnits="userSpaceOnUse"><stop offset="0" stop-color="#fa5db1"/><stop offset="1" stop-color="#febfbf"/></linearGradient><linearGradient id="linear-gradient-28" x1="1174.86" y1="665.02" x2="1201.59" y2="569.14" xlink:href="#linear-gradient-6"/><linearGradient id="GradientFill_17" x1="135.4" y1="367.57" x2="120.32" y2="398.54" gradientUnits="userSpaceOnUse"><stop offset="0" stop-color="#3964af"/><stop offset="1" stop-color="#00bcce"/></linearGradient><linearGradient id="linear-gradient-29" x1="135.14" y1="366.1" x2="104.77" y2="437.31" xlink:href="#linear-gradient-18"/><linearGradient id="linear-gradient-30" x1="170.85" y1="473.56" x2="126.42" y2="406.81" xlink:href="#linear-gradient-2"/></defs><g class="cls-1"><g id="Layer_2" data-name="Layer 2"><g id="Layer_1-2" data-name="Layer 1"><path class="cls-2" d="M929.07,1360.32l-477.35-264c-11.72-5.35-28.94-10.4-40.43-3.4l-29.41,17.91c-5.91,3.61-25.37,15.57-12.36,22.65C407.8,1154.31,814,1380.87,852.87,1402c7.35,4,18.11,5.44,29.4,4.51s22.91-4,31.84-9.48l11.74-7.25c8.31-5.12,12.91-10.71,13.35-16.08S936.26,1363.61,929.07,1360.32Z"/><path class="cls-3" d="M557.39,165.34c-6.89-3.91-14.95-5.36-22.51-2.51l-16.9,6.6c-6.13,31.75,349.89,1195.62,357.73,1203.69l15.08-5.69c9.9-3.9,15.09-14.2,16.54-24.22l127.33-869.12a.31.31,0,0,0,0-.09c2.08-14.62-2.32-29.84-10.35-42.05-4.33-6.58-10-12.61-17-16.4Z"/><path class="cls-4" d="M990.64,422,540.73,171.77c-18.35-10.17-35.82-.41-39.06,21.73L374.34,1062.62c-3.24,22.13,9,48.34,27.31,58.51l449.91,250.21c18.35,10.17,35.86.43,39.11-21.7L1018,480.52C1021.24,458.39,1009,432.15,990.64,422Z"/><path class="cls-5" d="M990.64,422,540.73,171.77c-18.35-10.17-35.82-.41-39.06,21.73L495.15,238l516.3,287.13,6.54-44.61C1021.24,458.39,1009,432.15,990.64,422Z"/><path class="cls-6" d="M779.66,24.2c1-7.29-1-11.69,2.59-15.81,2.3-2.63,9.58-6,12.61-7.15C800.74-1,807.76-.29,815,3.88l91.87,54.65c16.73,9.69,28.09,34.53,25.35,55.43L917.93,218.89c-.85,6.48-3.26,14.84-8.79,19.61-3.93,3.39-10.52,6.92-15.15,7.5s-6-3.7-11.35-6.79l-91.87-54.65c-16.75-9.7-28.09-34.53-25.35-55.43Z"/><path class="cls-7" d="M774,27.53c2.74-20.9,18.54-30,35.29-20.32l91.87,54.66c16.73,9.68,28.09,34.52,25.35,55.42L912.3,222.22c-2.74,20.9-18.56,30-35.3,20.33l-91.86-54.66c-16.75-9.7-28.1-34.53-25.35-55.43Z"/><path class="cls-8" d="M774,27.53c2.74-20.9,18.54-30,35.29-20.32l91.87,54.66c16.73,9.68,28.09,34.52,25.35,55.42l-1.34,9.85a53,53,0,0,0-5.6-3.74L772.8,36.63Z"/><path class="cls-9" d="M834.53,87.55c25.52,5.84,45.12,36.23,43.78,67.87S855.19,208,829.68,202.15s-45.12-36.23-43.78-67.87S809,81.71,834.53,87.55Z"/><path class="cls-10" d="M833.41,114c13.76,3.14,24.33,19.53,23.61,36.59s-12.47,28.34-26.22,25.19-24.33-19.53-23.61-36.59,12.46-28.34,26.22-25.19Zm-.61,14.48c-7.31-1.67-13.54,4.32-13.93,13.38s5.23,17.76,12.54,19.44,13.54-4.32,13.93-13.38S840.11,130.11,832.8,128.44Z"/><path class="cls-7" d="M796.7,18.32c4.61,1.06,8.15,6.55,7.91,12.27s-4.18,9.5-8.79,8.44-8.16-6.54-7.91-12.26S792.08,17.27,796.7,18.32Z"/><path class="cls-7" d="M817.7,30.39c4.61,1.05,8.15,6.54,7.91,12.26s-4.18,9.5-8.79,8.45-8.15-6.55-7.91-12.27S813.09,29.33,817.7,30.39Z"/><path class="cls-7" d="M840.42,43.63c4.61,1.06,8.16,6.55,7.91,12.27s-4.17,9.5-8.79,8.44-8.15-6.54-7.91-12.26S835.81,42.58,840.42,43.63Z"/><path class="cls-5" d="M415.51,947.93l153.43,84.12.67-4.64L416.18,943.29,434.89,815.8l153.44,84.07.67-4.64L435.56,811.16l18.67-127.5,153.49,84.12.66-4.63L455,679l18.67-127.55L627,635.6l.73-4.63L474.29,546.9,493,419.36l153.44,84.09.67-4.63-153.44-84.1,18.72-127.47,153.44,84.1L647.1,498.82l-.67,4.64L627.77,631,627,635.6,608.38,763.15l-.66,4.63L589,895.23l-.67,4.64-18.72,127.54-.67,4.64-18.72,127.49h0l-153.43-84.12,18.72-127.49Zm407.8-490.26-153.43-84.1L651.15,501.05l153.44,84.08-.67,4.63L650.49,505.68h0L631.77,633.19l153.48,84.12-.72,4.63L631.1,637.83,612.45,765.37l153.42,84.07-.72,4.64L611.71,770h0L593.06,897.45l153.42,84.12-.67,4.64L592.39,902.09h0l-18.72,127.54,153.42,84.06-.67,4.65L573,1034.28h0l-18.72,127.49,153.43,84.12h0l18.71-127.55.67-4.65,18.72-127.48.67-4.64,18.67-127.49.72-4.64,18.66-127.5.72-4.63,18.67-127.55.67-4.63,18.72-127.46ZM980.79,544,962.07,671.47l-.67,4.64L942.68,803.6l-.65,4.64L923.36,935.78l-.72,4.64L904,1067.87l-.67,4.63-18.71,127.55-.67,4.63-18.72,127.5h0l-153.43-84.07,18.71-127.55h0l153.44,84.12.67-4.63-153.44-84.12,18.72-127.5h0L903.3,1072.5l.67-4.63L750.54,983.79,769.21,856.3h0l153.43,84.12.72-4.64L769.93,851.66l18.66-127.48L942,808.24l.65-4.64L789.26,719.53,808,592h0L961.4,676.11l.67-4.64L808.64,587.35l18.72-127.47h0L980.79,544ZM509,280.39,392.06,1077.84,868.57,1339l116.64-797.6Z"/><path class="cls-11" d="M665.55,1132.58l-16.67-9.21c-2.7-1.49-4.62-5-4.78-8.59l-.9-22.53a10.15,10.15,0,0,0-4.76-8.57,4.85,4.85,0,0,0-7,2l-9.35,16.82a4.92,4.92,0,0,1-7,2.06l-16.66-9.26c-6-3.38-10.59,4.77-6.64,11.86l10.9,19.61c1.76,3.15,1.92,7.13.4,9.83l-9.4,16.79c-2.59,4.6-.14,11.22,3.74,13.38a5.11,5.11,0,0,0,4,.5l16.08-4.72a5.18,5.18,0,0,1,4,.55,8.82,8.82,0,0,1,3.33,3.5l10.86,19.65a8.81,8.81,0,0,0,3.32,3.54c3.87,2.14,8.35-.65,8.08-6.83l-1-22.54c-.14-3.61,1.52-6.59,4.12-7.32l16.11-4.64C672,1146.82,671.57,1135.92,665.55,1132.58Z"/><path class="cls-6" d="M679,859.4c-9.39-5.21-19.35,1.81-19.24,15.4a27.11,27.11,0,0,0,7.73,18.8,18.55,18.55,0,0,0,3.8,2.86c9.37,5.19,19.29-1.83,19.22-15.35a27.19,27.19,0,0,0-7.67-18.84A18.54,18.54,0,0,0,679,859.4Zm-9,43.44a24.82,24.82,0,0,1-5.1-3.83c-6.35-6.08-10.31-15.83-10.41-25.3C654.37,855.5,667.73,846,680.35,853a24.62,24.62,0,0,1,5.18,3.89c6.32,6.07,10.29,15.82,10.33,25.29.08,18.17-13.27,27.62-25.87,20.64Zm43-15.49c2.19,1.22,3.5,4.42,2.91,7.17L713.6,905.2c-.59,2.72-2.85,3.93-5.05,2.72l-1.12-.63a3.15,3.15,0,0,0-4.44,1.23,33.44,33.44,0,0,1-2,3,6.3,6.3,0,0,0-.45,6l.59,1.45c1.13,2.76.45,5.9-1.5,7l-7.73,4.17a3.18,3.18,0,0,1-3.13-.11,6,6,0,0,1-2.51-3l-.6-1.41a5.88,5.88,0,0,0-2.48-3,3.64,3.64,0,0,0-1.85-.47c-1.1,0-2.21,0-3.31-.14-1.77-.17-3.24,1.08-3.69,3.17L674,926.6c-.59,2.72-2.85,3.94-5,2.72l-8.61-4.77a6.9,6.9,0,0,1-2.93-7.14l.3-1.39a7.26,7.26,0,0,0-1.68-6.15c-.93-1-1.79-2.07-2.65-3.16a5.39,5.39,0,0,0-1.65-1.47,3.18,3.18,0,0,0-3.1-.11l-1,.52a3.21,3.21,0,0,1-3.13-.11,6,6,0,0,1-2.51-3l-4.48-10.94c-1.12-2.76-.45-5.9,1.5-7l1-.56c1.52-.82,2.29-2.89,2-5.2-.21-1.47-.35-2.94-.45-4.41a6.67,6.67,0,0,0-3-5.37l-1.13-.62a6.9,6.9,0,0,1-2.92-7.14l2.3-10.67c.59-2.76,2.85-4,5-2.76l1.12.62a3.14,3.14,0,0,0,4.44-1.22,31.49,31.49,0,0,1,2-3,6.27,6.27,0,0,0,.45-6l-.6-1.44c-1.11-2.79-.45-5.9,1.51-7l7.73-4.18a3.18,3.18,0,0,1,3.13.11,6,6,0,0,1,2.51,3l.59,1.45a5.94,5.94,0,0,0,2.49,3,3.52,3.52,0,0,0,1.85.47,28.16,28.16,0,0,1,3.31.11c1.76.2,3.23-1,3.68-3.13l.3-1.4c.59-2.75,2.85-4,5-2.75l8.62,4.78a6.9,6.9,0,0,1,2.91,7.16l-.3,1.39a7.2,7.2,0,0,0,1.67,6.11c.92,1,1.81,2.09,2.67,3.2a5.18,5.18,0,0,0,1.64,1.46,3.15,3.15,0,0,0,3.1.12l1-.55a3.21,3.21,0,0,1,3.13.11,6,6,0,0,1,2.51,3l4.48,10.94c1.12,2.79.45,5.91-1.5,7l-1,.55c-1.51.82-2.28,2.89-2,5.18.21,1.46.36,2.93.45,4.4a6.66,6.66,0,0,0,3,5.37Z"/><path class="cls-12" d="M513.47,1079.32c-5.67,26.32-27.61,38.21-48.89,26.42s-34-42.89-28.32-69.21,27.64-38.2,48.89-26.41,34,42.88,28.32,69.2Zm-34.31-10.78a8.65,8.65,0,0,0,4.07-6,15,15,0,0,0-3.85-13.2l5.08-23.63a4.17,4.17,0,0,0-1.74-4.29c-1.29-.71-2.66.06-3,1.66l-5.09,23.63c-3.72-.67-7.09,1.91-8.09,6.58-1.24,5.72,1.52,12.39,6.1,14.93a8.49,8.49,0,0,0,2.89,1l9.6,35a2.65,2.65,0,0,0,1.25,1.68,2.21,2.21,0,0,0,1.18.28c1,0,1.5-1.57,1.12-2.91l-9.52-34.74Zm7.82-66.92c-25.06-13.88-50.89.08-57.57,31.11s8.28,67.65,33.34,81.54,50.92-.1,57.6-31.13S512,1015.51,487,1001.62Z"/><path class="cls-13" d="M574,752.68l-96.45-53c-3.66-1.93-7,0-7.54,4.25L457.65,809.67c-.51,4.31,2.05,9.34,5.71,11.27l96.46,53c3.66,1.93,7,0,7.5-4.31L579.7,763.89C580.2,759.59,577.67,754.61,574,752.68Z"/><path class="cls-7" d="M561.88,763.05c2.3,1.2,3.4,4.81,2,6.58l-47,60.57a2.16,2.16,0,0,1-2.85.44,5.08,5.08,0,0,1-2.22-2.69l-28.52-74.57c-1.2-3.08.62-5.61,3.08-4.32L500,756.22a5.22,5.22,0,0,1,2.26,2.73l11.79,30.86a5.12,5.12,0,0,0,2.24,2.69,2.13,2.13,0,0,0,2.84-.44l27.38-35.18a2.14,2.14,0,0,1,2.83-.41Z"/><path class="cls-12" d="M791.09,604.55l-134.53-73c-1.95-1.07-3.79,0-4.15,2.27l-1.82,11.65a6.19,6.19,0,0,0,2.83,6.08l134.54,73c1.91,1.05,3.74,0,4.1-2.29l1.83-11.65A6.26,6.26,0,0,0,791.09,604.55Z"/><path class="cls-12" d="M783.1,647.51l-71.61-39.19c-1.94-1.06-3.78,0-4.14,2.27l-.55,3.49a6.25,6.25,0,0,0,2.84,6.09l71.6,39.18c1.91,1,3.75,0,4.11-2.28l.55-3.5A6.24,6.24,0,0,0,783.1,647.51Z"/><path class="cls-14" d="M941,444.18c7.52,3.75,10.92,12.2,7.6,18.87s-12.12,9-19.64,5.29-10.92-12.2-7.59-18.87S933.48,440.43,941,444.18Z"/><path class="cls-15" d="M941.81,448c9,9.52-1.49,22.69-13.42,16.95,7.45,5.53,15.6,2.3,18.29-3.35C948.64,457.47,947.55,452,941.81,448Z"/><path class="cls-16" d="M988.66,357.45c19.83,9.33,24.8,35.37,14.76,62.07l-13-7.68c5.31-17.53,5.37-33-8.77-39.71s-40,5.24-51,26.16-9.2,42.33,6.4,49.67c4.29,2,5.27,5.93,4,9.91-1.48,4.53-6.43,5.72-10.12,4.3-.73-.28-1.45-.6-2.16-.94-22.48-10.57-27.45-39.14-11.51-69.29S966.19,346.88,988.66,357.45Z"/><path class="cls-17" d="M1000.38,417.73l-10-5.89c5.31-17.53,5.37-33-8.77-39.71s-40,5.24-51,26.16-9.2,42.33,6.4,49.67a7.2,7.2,0,0,1,4.47,6c-6.35-.31-16.57-6.67-20.61-19.84-6.83-22.28,6-45.67,23.06-59.46,16.49-13.33,35.12-13.79,44.62-8.54C1011.48,378.79,1003.75,407.43,1000.38,417.73Z"/><path class="cls-14" d="M864.86,400c7.52,3.75,10.92,12.2,7.6,18.87s-12.12,9-19.64,5.29S841.9,412,845.23,405.28,857.34,396.24,864.86,400Z"/><path class="cls-15" d="M865.67,403.8c9,9.53-1.49,22.69-13.42,16.95,7.45,5.53,15.6,2.3,18.29-3.35C872.5,413.28,871.41,407.82,865.67,403.8Z"/><path class="cls-16" d="M912.52,313.26c19.83,9.33,24.8,35.37,14.76,62.08l-13-7.69c5.3-17.52,5.36-33-8.78-39.7s-40,5.23-51,26.15-9.2,42.33,6.4,49.67c4.29,2,5.27,5.93,4,9.91-1.48,4.53-6.42,5.72-10.12,4.3-.73-.28-1.45-.6-2.16-.93-22.47-10.58-27.45-39.14-11.51-69.29S890.05,302.69,912.52,313.26Z"/><path class="cls-17" d="M924.24,373.55l-10-5.9c5.3-17.52,5.36-33-8.78-39.7s-40,5.23-51,26.15-9.2,42.33,6.4,49.67a7.21,7.21,0,0,1,4.47,6c-6.35-.3-16.57-6.67-20.61-19.83-6.83-22.29,6-45.68,23.06-59.46,16.49-13.34,35.12-13.8,44.62-8.55C935.34,334.6,927.61,363.24,924.24,373.55Z"/><path class="cls-14" d="M788.91,355.81c7.52,3.75,10.92,12.19,7.6,18.87s-12.12,9-19.64,5.29-10.92-12.2-7.59-18.87S781.39,352.06,788.91,355.81Z"/><path class="cls-15" d="M789.72,359.62c9,9.52-1.49,22.68-13.42,16.95,7.45,5.53,15.6,2.3,18.29-3.36C796.54,369.1,795.46,363.63,789.72,359.62Z"/><path class="cls-16" d="M836.57,269.08c19.83,9.32,24.8,35.37,14.76,62.07l-13-7.69c5.3-17.52,5.36-33-8.78-39.7s-40,5.24-51,26.16-9.2,42.33,6.4,49.66c4.29,2,5.27,5.94,4,9.92-1.47,4.53-6.41,5.72-10.11,4.3-.73-.29-1.45-.61-2.16-.94-22.47-10.57-27.45-39.14-11.51-69.29S814.1,258.5,836.57,269.08Z"/><path class="cls-17" d="M848.29,329.36l-10-5.9c5.3-17.52,5.36-33-8.78-39.7s-40,5.24-51,26.16-9.2,42.33,6.4,49.66a7.23,7.23,0,0,1,4.47,6c-6.35-.3-16.57-6.66-20.61-19.83-6.83-22.29,6-45.67,23.06-59.46,16.49-13.34,35.12-13.79,44.62-8.54C859.39,290.41,851.66,319.06,848.29,329.36Z"/><path class="cls-14" d="M713.14,311.8c7.52,3.75,10.92,12.2,7.59,18.87s-12.11,9-19.63,5.29-10.92-12.2-7.6-18.87S705.62,308.05,713.14,311.8Z"/><path class="cls-15" d="M714,315.61c9,9.52-1.49,22.69-13.42,16.95,7.45,5.53,15.6,2.3,18.29-3.35C720.77,325.09,719.69,319.63,714,315.61Z"/><path class="cls-16" d="M760.8,225.07c19.83,9.33,24.8,35.37,14.76,62.07l-13-7.68c5.3-17.52,5.37-33-8.77-39.71s-40,5.24-51,26.16-9.2,42.33,6.4,49.67c4.29,2,5.27,5.93,4,9.91-1.47,4.53-6.42,5.72-10.11,4.3-.73-.28-1.45-.6-2.16-.94-22.48-10.57-27.45-39.14-11.51-69.29S738.32,214.5,760.8,225.07Z"/><path class="cls-17" d="M772.52,285.35l-10-5.89c5.3-17.52,5.37-33-8.77-39.71s-40,5.24-51,26.16-9.2,42.33,6.4,49.67a7.2,7.2,0,0,1,4.47,6c-6.35-.31-16.57-6.67-20.61-19.84-6.83-22.28,6-45.67,23-59.46,16.5-13.33,35.13-13.79,44.63-8.54C783.62,246.41,775.89,275.05,772.52,285.35Z"/><path class="cls-14" d="M637.24,267.63c7.52,3.75,10.92,12.2,7.59,18.87s-12.12,9-19.64,5.29-10.91-12.2-7.59-18.87S629.72,263.88,637.24,267.63Z"/><path class="cls-15" d="M638.05,271.44c9,9.53-1.49,22.69-13.42,16.95,7.45,5.53,15.6,2.3,18.29-3.35C644.87,280.92,643.79,275.46,638.05,271.44Z"/><path class="cls-16" d="M684.9,180.9c19.83,9.33,24.8,35.37,14.76,62.08l-13-7.69c5.3-17.52,5.37-33-8.78-39.7s-40,5.23-51,26.15-9.2,42.33,6.39,49.67c4.3,2,5.28,5.93,4,9.91-1.47,4.53-6.42,5.72-10.12,4.3-.73-.28-1.44-.6-2.15-.93-22.48-10.58-27.46-39.14-11.51-69.29S662.42,170.33,684.9,180.9Z"/><path class="cls-17" d="M696.62,241.19l-10-5.9c5.3-17.52,5.37-33-8.78-39.7s-40,5.23-51,26.15-9.2,42.33,6.39,49.67a7.23,7.23,0,0,1,4.48,6c-6.35-.3-16.57-6.67-20.61-19.83-6.83-22.29,6-45.68,23-59.46,16.5-13.34,35.13-13.8,44.63-8.55C707.72,202.24,700,230.88,696.62,241.19Z"/><path class="cls-14" d="M561.42,223.63c7.52,3.75,10.92,12.19,7.59,18.86s-12.12,9-19.64,5.29-10.92-12.19-7.59-18.86S553.9,219.88,561.42,223.63Z"/><path class="cls-15" d="M562.23,227.44c9,9.52-1.5,22.68-13.42,16.95,7.45,5.52,15.6,2.29,18.28-3.36C569.05,236.91,568,231.45,562.23,227.44Z"/><path class="cls-16" d="M609.08,136.9c19.83,9.32,24.8,35.37,14.75,62.07l-13-7.69c5.3-17.52,5.37-33.05-8.78-39.7s-40,5.24-51,26.16-9.2,42.33,6.39,49.66c4.3,2,5.28,5.94,4,9.92-1.47,4.53-6.42,5.72-10.12,4.29-.73-.28-1.44-.6-2.15-.93-22.48-10.58-27.46-39.14-11.51-69.29S586.6,126.32,609.08,136.9Z"/><path class="cls-17" d="M620.8,197.18l-10-5.9c5.3-17.52,5.37-33.05-8.78-39.7s-40,5.24-51,26.16-9.2,42.33,6.39,49.66a7.23,7.23,0,0,1,4.47,6c-6.34-.3-16.57-6.67-20.6-19.83-6.83-22.29,6-45.68,23.05-59.46,16.49-13.34,35.13-13.8,44.62-8.54C631.89,158.23,624.17,186.87,620.8,197.18Z"/><path class="cls-12" d="M688.2,447.76c-3.3,29.62,13.13,65.81,36.74,80.78s46.25-4.31,48.73-26.61-1.69-31.58-8.44-46.29c-4.11,2.27-8.22,4.54-12.32,6.76,4.38,9.45,7.08,15.5,5.48,29.84s-16.15,26.7-31.31,17.09-25.72-32.86-23.6-51.89C698.44,454.23,693.3,451,688.2,447.76Z"/><path class="cls-18" d="M705,417.74c-8.83,4.78-15.13,15.18-16.78,30,5.1,3.23,10.24,6.47,15.28,9.68,1.06-9.51,5.08-16.21,10.76-19.29Q709.59,428,705,417.74Z"/><path class="cls-19" d="M736.93,421.13c-11.81-7.48-23.15-8.22-31.95-3.44q4.6,10.26,9.26,20.46c5.68-3.08,13-2.61,20.52,2.19s14,13,18.3,22.4c4.11-2.22,8.21-4.44,12.32-6.71C758.75,441.4,748.75,428.61,736.93,421.13Z"/><path class="cls-12" d="M736,997.86l-134.54-73c-1.94-1.06-3.78,0-4.14,2.27l-1.83,11.65a6.23,6.23,0,0,0,2.84,6.09l134.53,73c1.91,1,3.74,0,4.11-2.28l1.83-11.66A6.28,6.28,0,0,0,736,997.86Z"/><path class="cls-12" d="M667.87,1005.06l-71.61-39.18c-2-1.06-3.79,0-4.15,2.26l-.55,3.5a6.28,6.28,0,0,0,2.84,6.09L666,1016.91c1.91,1.05,3.75,0,4.11-2.29l.54-3.49A6.27,6.27,0,0,0,667.87,1005.06Z"/><path class="cls-20" d="M584.86,371.14l-98.79-47.75-39,244-5,34.28,102.71,55.42c17.84,9.89,34.87.42,38-21.11l28.64-207.87C614.61,406.55,602.7,381,584.86,371.14Z"/><path class="cls-6" d="M572.81,429.16,542,628l3.22.39L554,625c9.63-3.79,14.68-13.82,16.1-23.56l25.42-181.16v-.07c2-14.24-2.26-29-10.08-40.92-4.2-6.4-9.74-12.26-16.54-15.95L380,260.69c-6.7-3.8-14.55-5.21-21.9-2.44l-7.74,3c-3.89,1.47-5.1,2.64-5.07,2.88C349,298.21,577.94,394.23,572.81,429.16Z"/><path class="cls-21" d="M560.09,366.84,371.18,264.18c-7.82-4.34-15.48-4.95-21.87-2.45-8.21,3.19-14.34,11.49-16.12,23.58L307.78,466.48c-3.16,21.52,8.71,47,26.55,56.91L523.24,626c17.84,9.89,34.88.42,38-21.1l25.41-181.17C589.84,402.24,577.93,376.72,560.09,366.84Z"/><path class="cls-22" d="M525.09,577.56,335.31,475.69c-4.38-2.35-8.56.07-9.41,5.51-.83,5.25,2,11.43,6.4,13.79L522.07,596.86c4.38,2.35,8.64,0,9.49-5.47.82-5.24-2.1-11.48-6.47-13.83Zm8.48-55.15c4.37,2.35,7.29,8.59,6.48,13.83-.85,5.43-5.12,7.82-9.5,5.47L340.78,439.84c-4.38-2.35-7.22-8.54-6.4-13.79.85-5.44,5-7.86,9.41-5.5L533.57,522.41Zm19.53-125L363.31,295.49c-4.37-2.36-8.56.07-9.37,5.32l-2.11,13.49c-.82,5.25,2,11.43,6.4,13.79L548,430c4.37,2.35,8.63,0,9.46-5.28l2.1-13.49c.83-5.24-2.1-11.47-6.47-13.82Zm-11,70.34c4.37,2.35,7.31,8.49,6.49,13.74-.87,5.53-5.11,7.82-9.48,5.46L349.34,385c-4.38-2.35-7.24-8.45-6.42-13.69.87-5.53,5-7.86,9.41-5.52Z"/><path class="cls-2" d="M185.85,1197.3l140.82-80.2c15.36-7,37.33-12.6,53-4.46,14.25,7.42,37.73,22.59,48.11,28.51,7.88,4.5,35.25,20.9,18.2,30.17-50.14,27.27-99.77,57.94-150.7,85.64-9.63,5.24-23.71,7.13-38.5,5.9s-29.83-5.51-41.71-12.42q-12.71-7.38-25-14.54c-11-6.43-16.91-14-17.49-21.06C172,1208,176.43,1201.6,185.85,1197.3Z"/><path class="cls-7" d="M243.06,1192c3.19-.07,13.95-10.18,24.14-5.08,12.24,6.14,35.48.7,47.2,3.52,2.09.5,6.17-1,7,.4,2.53,4.49,5,11.21-1.24,15.61-4.57,3.23-14.36,7.52-20.78,9.79-6.82,2.41-18.48,6.22-26.3,7.44-8.65,1.36-12.6,1.91-15.84,4.42-4.63,2.33-9.42,3.33-12.09,2.9-5.71-.9-12.37-4.25-15.41-10.76-1-2.08-1-11.17.12-17.06.88-4.65,3.42-10,5.45-14.9Z"/><path class="cls-23" d="M268.09,1170.22c-3.87,9.3-2.68,23.68-11.86,28.67-6.13,3.34-15.74,3.37-19.92-6.16-2.34-5.32.76-14.4.08-26.07Z"/><path class="cls-24" d="M270.64,1184.62c7,2,26.44.68,38.72,1.67,5.27.43,10,.39,12.46,5.18,2.27,4.4,1.09,8.18-4.05,11.81-4.58,3.24-12.33,6.92-18.75,9.2-6.81,2.41-18.48,6.22-26.29,7.44-8.66,1.36-12.61,1.91-15.85,4.41-4.63,2.34-9.42,3.34-12.09,2.91a21.29,21.29,0,0,1-15.41-11.44c-1-2.08-1-10.48.12-16.38a28.2,28.2,0,0,1,.9-3.47c1-9.24,4-13,6.89-11.39,3.94,2.16,5.42,6.06,6.92,9.26a9,9,0,0,0,5.34,5.1c4.71,1.48,9-1.14,11.79-5.18a33.14,33.14,0,0,0,3.23-9.36c0-.31,0-.63,0-.94.92-8.07,4.85-7.37,4.25-5.66C268.29,1179.34,268.51,1183,270.64,1184.62Z"/><path class="cls-7" d="M319.37,1190.11c-.09,3.12,4.69,3.41,3.31,8.9,2.3-2.26-.91-8.73-2.33-9.71C319.77,1188.9,319.27,1188.73,319.37,1190.11Z"/><path class="cls-7" d="M323,1160c3-1.16,9.6-14.36,20.92-13.08,4.57.52,11.91-.67,19.37-2.78,11.89-3.39,28.45-14,31.28-12.27,6.15,3.79,6.65,10.7,2.32,17-3.18,4.61-9.19,10.74-14.44,15.09-5.56,4.61-13.46,11.66-20.38,15.5-6.54,3.63-8.71,3.31-13.36,9.6-3.55,3.78-7.7,6-10.35,6.55-6.8,1.33-16.67-3-20.22-7.59-2.26-7.31-6.18-14.23-3.67-25.21Z"/><path class="cls-23" d="M338.74,1128.83c-.18,10.06,6.22,23-.48,31-4.48,5.36-13.4,8.92-20.8,1.59-4.12-4.08-4.58-13.67-9.51-24.27Z"/><path class="cls-24" d="M360.28,1141.1c.67-.18,1.35-.36,2-.56,11.89-3.37,27.77-11.56,30.6-9.83,6.16,3.79,7.33,8.27,3,14.53-3.18,4.61-9.2,10.74-14.44,15.09-5.57,4.61-13.47,11.67-20.39,15.5-6.53,3.63-8.7,3.31-13.36,9.6-3.54,3.78-7.7,6-10.35,6.55-6.79,1.33-17-3.08-20.51-7.63-1.68-5.45-4-10.63-4.17-17.47-1-9-.38-13.51,3.52-13.39,7.24.21,10.23,4,13.23,5.89,6.44,4,10.76-1.17,11.81-7.6a37.1,37.1,0,0,0-.59-8.49c-.1-.3-.21-.59-.33-.88-2.11-7.85,1.8-8.63,1.87-6.83a6.73,6.73,0,0,0,6,6.85C352.12,1143,357.09,1141.37,360.28,1141.1Z"/><path class="cls-7" d="M392.18,1131.72c1.26,2.85,5.7,1.06,6.82,6.6,1.1-3-4.58-7.48-6.29-7.75C392,1130.45,391.5,1130.52,392.18,1131.72Z"/><path class="cls-25" d="M203.71,777.13c23.65,27.43,24,29.57,70.19,56.7l8.78-17.29c-15.5-31.74-20.13-36-40.26-60.68,18.3-12.66,38-32,47.34-44.52,30.12-40.21,13.39-68.14-12.63-62.48-22.7,4.94-58.11,63.69-77.36,96.82C191.74,759.48,189.8,761,203.71,777.13Z"/><path class="cls-26" d="M250.21,750.14c15.85-12.26,31.49-28,39.55-38.8,30.12-40.21,12.52-67.34-13.5-61.68C262.68,653.81,238.46,682.54,250.21,750.14Z"/><path class="cls-27" d="M331.89,856.91c2.61,29.17,17.23,122.34,13.16,147.92-6.12,38.47-4.37,84.94-4.3,125.76-1,17.15-24.62,26.12-31.48,15.22-5.51-36.48-13.35-68.44-16.54-88.71-3.57-22.7-2.39-50.28,3.37-65.2-2.37-16.3-13.48-58.34-22.76-87.47C270,893.91,251,860,270.65,826.18Z"/><path class="cls-28" d="M341.13,1119.64c0,3-.09,7.64-.08,10.61-1,17.15-24.92,26.46-31.78,15.56-.41-2.69-1-5.36-1.42-8C317.08,1147.76,335.17,1134.84,341.13,1119.64Z"/><path class="cls-29" d="M345.68,987.48c-7.69,38.57-29.44,90.09-41.31,128.88-6.18-33.23-21.65-89.82-8.27-124.46-1.35-9.28-5.53-26.91-10.6-45.76,10.29-19.51.45-35.08,5.31-62.56,27.25-4.75-13.87-38,43.79-3C339.76,922,344.6,948,345.68,987.48Z"/><path class="cls-30" d="M330,1024.06c-15.72,35.59-44.72,105.4-60.15,149.07-8,11.6-36.43,10.39-36.38-.43,6.28-36.51,13.67-92.83,26.78-124.86,4-9.8,18.81-33.38,24.15-40.38,4.14-16.12,9.34-59.64,13.35-83.2-3.6-19.49-19.32-52.07,10.89-80.4,12.18,8.67,49.86,14.09,67,4.44C378.36,925.29,359.46,957.39,330,1024.06Z"/><path class="cls-31" d="M273.06,1165.52c-.69,1.91-2.06,5.76-2.7,7.59-8.22,11.94-37.51,10.7-37.45-.44q.47-2.72.94-5.55C240.83,1174.24,262,1174.33,273.06,1165.52Z"/><path class="cls-32" d="M263.39,752.27c2.53,22.87-4.34,45.36,2.66,66.24.31,2.15.51,10.62.88,12.92,4.61,27.05,61.82,54.42,109.53,28.46.26-3.35,0-6.85.22-13.06-.88-5.81,1.62-12,1.61-15.56-.07-14.72-4.65-22.25-2.45-38.62,4.47-33.33,22.92-65.35,12.71-91.56-2.19-5.63-6-8.36-10.38-11.85-11.27-9.06-69.59-38.76-87.27-40.85C239.57,641.73,260.63,727.46,263.39,752.27Z"/><path class="cls-33" d="M344.93,638.14a126.55,126.55,0,0,0,1.3,28c-16.69-.55-39.88-4.91-42.41-17.34.12-1.49.22-3,.3-4.48a5.42,5.42,0,0,0-.69-.54c-6-4-15.88-6.93-22.24-14.21-10.17-11.63-15.58-27.25-7.6-43,14.58-28.72,49.83-29.21,69.47-6,3.83,4.54,1,9.23,3.21,13.61.42.86,2,1.24,3.81,2.74,2.51,2.07,9.84,20,9.65,29.4-.08,3.77-8.75,9.08-12.6,11.17A10.14,10.14,0,0,1,344.93,638.14Z"/><path class="cls-34" d="M344.93,638.14a126.55,126.55,0,0,0,1.3,28c-16.69-.55-39.88-4.91-42.41-17.34.12-1.49.22-3,.3-4.48-.23-.21-.48-.35-.69-.54-12.68-11.87,4.29-25.48,25.73-13.76A16.63,16.63,0,0,0,344.93,638.14Z"/><path class="cls-35" d="M359.73,626.4c-.08,1.64-6.91,4.13-9.77,4.51,2-17.73-14.93-20.44-12.39-37.76,1.53-10.41-9.17-14.17-5-21.79a48.75,48.75,0,0,1,10.46,9.29c3.83,4.54,1,9.23,3.21,13.61.42.86,2,1.24,3.81,2.74C352.59,599.07,360.16,617,359.73,626.4Z"/><path class="cls-36" d="M336.73,619.19c-.33-4-1.94-4.74-3.27-3.68s-2.71,4.6-2.31,8.68c.65,6.59,6.75,12.49,11,7.16-4.6,2.44-6.77-3.46-7-7.62C335,620.9,335.73,618.53,336.73,619.19Z"/><path class="cls-37" d="M335.26,621.73c2.45,1.85,3.58,3.1,3.54,4.15,0,.72-.63,1.81-2.78,1A9.36,9.36,0,0,1,335.26,621.73Z"/><path class="cls-2" d="M303.61,648.4c-4.94,1.52-9.55,6.6-8.65,9.85,4.92,20.1,41.74,24.58,64.65,19.74.27-.06-8.58-11.76-13-13.18C332.24,666.22,308.06,660.26,303.61,648.4Z"/><path class="cls-38" d="M301.84,647.15c-6.1-6.52-16.43-9.63-23.06-17.21s-13.7-19-9.33-30.73c-7.7-24.22,18.62-43.42,40.78-47.79,15.86-3.12,25.34,13.89,18.45,25.4,5.94,6.65,5.75,15.44,5.33,17.7-1.27,6.91-1.09,7.78,1.12,13,1.75,4.09,6.1,14-1.78,7.71-5.09-4-8.65,4.89-6.92,11.06a28.28,28.28,0,0,1,1.1,11.94C326.05,651.15,305.24,650.78,301.84,647.15Z"/><path class="cls-39" d="M276.8,588.24c-5.25-23.45,25.58-35.32,37.65-35.6s21.77,19.8,7.3,26.57C311.88,583.82,292.33,574.8,276.8,588.24Z"/><path class="cls-40" d="M542.86,632.19c2.06-.71,6,1.47,12.94-.06,6.67-1.46,14.44-9.06,15.08-11.1,3.75-12,9.76-43.69,2.6-41.91a27.41,27.41,0,0,1-9.28,14.14c-5.43,4-14.61,6-18.08,6.11l.24-.15c9.9-1.42,16.65-5.1,12.85-11.46A27.28,27.28,0,0,1,547.49,591c-12.26.78-17.31,11.56-19.94,19a60.54,60.54,0,0,1-10.06,13.95L527,643.61A80.71,80.71,0,0,1,542.86,632.19Z"/><path class="cls-26" d="M380.53,770.77c6.5-23.53,14.3-45.73,6.86-64.83-2.19-5.62-6-8.35-10.37-11.84-6.61-5.31-14.3-3.9-19.35,2.74C339.09,721.24,353.88,757.2,380.53,770.77Z"/><path class="cls-41" d="M367.54,688.73c2.89-1.35,70.57-10.62,82.71-11.28,6.83-7.39,37.63-38.92,54.75-47.19,3.05-1.48,7.57-2.62,9.47-4.37,2.07-1.9,5-4.7,6.2-5.66,5.16,1.6,11.54,8.86,15.61,15.79-2,2.62-4,5.4-6,8.3-1.48,2.15-1.9,7.76-3.35,10-9,14-30,32-41.51,44.64-5.2,5.72-9.23,10.65-16.81,14-5.08,2.28-11.58,5.13-17.6,7.55-12.46,5-43.14,17.57-65.19,21.12C345.27,748.22,341,701.13,367.54,688.73Z"/><path class="cls-42" d="M813.17,641c2.74-20.9,18.53-30,35.28-20.32l148,86.52-23.31,187-17.55,11.38L820.83,826.81c-16.75-9.7-28.1-34.53-25.36-55.43Z"/><path class="cls-2" d="M736.25,1465.54l146.58-83.48c16-7.3,38.84-13.11,55.12-4.64,14.84,7.72,39.27,23.52,50.08,29.68,8.21,4.68,36.69,21.75,19,31.4-52.2,28.38-103.85,60.3-156.86,89.14-10,5.45-24.69,7.42-40.08,6.14s-31-5.74-43.41-12.93q-13.21-7.68-26-15.13c-11.5-6.69-17.6-14.61-18.2-21.93C721.85,1476.64,726.44,1470,736.25,1465.54Z"/><path class="cls-33" d="M920.74,872a7.86,7.86,0,0,1-1.71-9.35c1.88-3.47,9.62-7.86,10.21-8.48,1-1,2.08-10.39,8.23-7.66a68.94,68.94,0,0,1-2.89,11C932.25,860.62,924.19,872.93,920.74,872Z"/><path class="cls-33" d="M934.6,857.24c-6.33,4.64-15,3-16.52,10.34a81.23,81.23,0,0,0-1.17,9.95c4,3.24,7.45,5.77,12.66,6.75a9.09,9.09,0,0,1,1.33-2.54c2.22-2.85,5.25-4.72,12.79-8.46s8.58-4.88,10.4-20.43c1.34-11.39,2-17.67-2.77-20.12C940.2,827,941.22,848,934.6,857.24Z"/><path class="cls-43" d="M926.31,877.78c-.39,1.85-.69,3.58-.93,5.27a20.71,20.71,0,0,0,4.19,1.23,9.09,9.09,0,0,1,1.33-2.54c2.22-2.85,5.25-4.72,12.79-8.46s8.58-4.88,10.4-20.43c.9-7.65,1.49-13,.34-16.43-.56-1.67-3.49-1.2-3.78,1.23-1.31,10.86-.65,18.7-4.95,26.38C943.88,867.29,927.87,870.45,926.31,877.78Z"/><path class="cls-43" d="M934.81,857.32c.6,2.1,3.34,2.57,1.49,3.15-9.85,3.09-12.73,5.88-13.57,13.63,5.37-8.84,10.87-10.63,16.43-12.67l5.4,1.29C940.75,860.42,938.36,859.44,934.81,857.32Z"/><path class="cls-44" d="M843.23,976.13c3.9-4.92,13.15-8,19.33-12.56,10.17-7.53,21.92-18,32.62-24.1-.11-7.89,15.7-53.82,19.51-62.47,4.09-.67,12.21,2.39,17.38,5.75-3.51,17.8-3.12,41-8,56.63-.57,1.85-.47,6.91-2.2,11.18-1.66,4.08-9.71,13.22-13,16.59-7.18,7.4-23.49,25.83-37.41,35.83-10.22,7.34-15.73,6-20.93,2.94C838.5,998.83,835.46,985.91,843.23,976.13Z"/><path class="cls-33" d="M816,1351.39c-.9,8.84-2.49,17-5.59,23.09-1.54,1.68-3.46,2.7-4.37,4.61-4.83,10.27-5.89,20.17-2.52,72.87l12.37.27,1.58-18.62c1.53-7.55,5.77-18.59,7.48-25.43,3.74-14.9,4.1-22.37,6.38-33.33Z"/><path class="cls-45" d="M790.05,1414.86c-1.35-.18-3.9-.29-4.19-.61-.64-.71-1.84-4.2-1-4.86C786.45,1408.35,789.63,1413.85,790.05,1414.86Z"/><path class="cls-46" d="M796.92,1393.79c1.48,4.71-.62,9.25-2.1,14.14-5.18,17.09-8.21,18-6,25.78a34.64,34.64,0,0,0,7.57,13.57c3.35,3.82,4.36,6.57,8.66,9.54,6.49,4.48,12.26,6.57,10.85-2.41a43.45,43.45,0,0,0-2.12-8.34c-4.59-10.66-9.94-15.34-7-28.65,2.15-9.89,5.57-16.4,1.13-23.06Z"/><path class="cls-47" d="M798,1383.14c-2,8.92-4.86,16.4-13.06,26.25,1-.28,3.67,2.42,5.12,5.4,10.7-12.29,15.9-18.27,19.19-13-.32,4.44-1.94,12.49-3.31,18.75-.45,2.06-.94,6.61.36,9.75,4.2,10.08,11.9,24.79,9,29.61,1-1.29,2.2-4.84,2.19-9.62,0-7-1.21-16.39-1.36-22.18-.2-7.82,2.76-14.61,3.24-25.28a85.6,85.6,0,0,0,0-8.92c-.45-7.54-1.28-17.54-6.58-20.37-1.89-1-6.79-.27-9.33,1C799.79,1376.38,798.69,1379.7,798,1383.14Z"/><path class="cls-48" d="M871.05,1249.07l37.73-109.34,1.23-30c.2-4.85-2.39-8.41-3.92-12.21-19.88,5.86-31,12.18-52.38,11.43-6.41,9.53-15.19,27.36-15.52,40.84-.63,26.26,1.43,43.77-6.59,87.67-23.84,80.25-11.48,77.47-20.6,130.79-.77,5.69,16.75,10.21,22.71,6.67Z"/><path class="cls-29" d="M871.05,1249.07l37.73-109.34,1.23-30c.2-4.85-2.39-8.41-3.92-12.21-4,1.19-7.68,2.39-11.14,3.55l-22.19,35.47c-8.52,17.37-10.67,39.79-16.83,45,7,17,4,51.12,1.47,69.86-7.17-2.4-13.77-3.41-20.82-6,4.84,4,13.76,8.07,18.73,13.15-9,32.43-13.39,65.56-16.42,99Z"/><path class="cls-33" d="M885.77,1395.32c-.29,8.39-8.27,16.51-9.2,22-2.14,12.51,6.92,6,17.18,22.08,4.1,0,13.14,14.75,25.38,15.53,2.81.18,7.83-6.64,2.27-11.46-2.47-1.44-4.68-.37-6.72-2.14-4.24-3.75-9.24-34.56-8.25-43.43Z"/><path class="cls-47" d="M881.1,1407.68c9.94,1.22,19.22,25.48,26.9,36,3.73,5.12,11.64-.16,8.43-1.54,1.64.12,7.65-.59,12.09.12,6.23,1,4,7.25-.19,10.17-9.44,6.52-17.81,10.19-26.36,5.87a41.06,41.06,0,0,1-5.24-3.49,26.14,26.14,0,0,1-3.49-2.83c-2.77-3.31-3.83-8.66-6.36-13.2-.84-1.5-1.52-1.83-2.06-1.42-1,1.46,0,23.26.55,27.63-.28,1.25-4.53,2.24-5.38,1.29l-7.9-38.75a13.85,13.85,0,0,1,1-9.92C875.51,1413.1,880.05,1409.59,881.1,1407.68Z"/><path class="cls-46" d="M907,1460a17.84,17.84,0,0,1-5.06-1.69,41.06,41.06,0,0,1-5.24-3.49,26.14,26.14,0,0,1-3.49-2.83c-3-3.59-4.46-10.26-7.79-14.84,1.11-.68,4-.61,6.92,4.18,4.37,8,7.37,14,13.14,17.85A8.92,8.92,0,0,0,907,1460Z"/><path class="cls-49" d="M936.66,1225.92c5.57-29,5.43-45.67,3.57-67-.71-12.2.56-18.2-3.46-30a72.66,72.66,0,0,0-5.83-12.21c-19,5.86-33.12,11.61-54.61,10.86-4.92,9.53-9.18,22.29-7.4,35.76,3.47,26.26,12.49,47.73,15.4,92.75-7.38,52.46-2,87.86-.88,138.7.12,5.69,18.34,10.22,23.75,6.67C918.51,1341.85,925.47,1284.16,936.66,1225.92Z"/><path class="cls-50" d="M857.89,982.16c-22.21-2.52-22.27,34.1-14.54,51.34,20.1,44.85,7.1,51.79,8.94,72.23l-.41,8.23c19.1,28.44,74.45,26.22,81.17,5.67-.36-1.28-.64-6.68-1.12-8,1.31-18-7.34-32.23-5.67-44.52,2.82-20.63,14-27.89,8-45.53-4.42-6.07-16.39-15.81-28.83-22.62C887.93,989.35,868.38,983.34,857.89,982.16Z"/><path class="cls-33" d="M1030.72,913.21c-6.8,3.91-15.21,1.33-17.57,8.44a82.57,82.57,0,0,0-2.27,9.76c3.58,3.66,6.75,6.56,11.83,8.12a8.85,8.85,0,0,1,1.6-2.38c2.52-2.59,5.74-4.1,13.66-7s9.06-3.9,12.61-19.15c2.6-11.16,4-17.33-.5-20.3C1039.66,883.79,1038.33,904.79,1030.72,913.21Z"/><path class="cls-43" d="M1037.88,923.52c-6.81,3.91-15.32,2.07-17.69,9.19-.59,1.78-1.08,3.47-1.51,5.12a20.77,20.77,0,0,0,4,1.7,8.85,8.85,0,0,1,1.6-2.38c2.52-2.59,5.74-4.1,13.66-7s9.06-3.9,12.61-19.15c1.75-7.5,2.93-12.74,2.17-16.28-.37-1.72-3.33-1.59-3.9.8C1046,907.79,1045.48,915.09,1037.88,923.52Z"/><path class="cls-43" d="M1048.05,892.46c-1.36,6.69-4.87,13.08-8.28,17.88-1.58,2.22-1.79,4.19-4.22,5.45-1,.53-2.62-.95-4.63-2.47.36,2.15,1.52,3.87-.38,4.24-12.5,2.43-13.87,5.44-15.36,17.88h0c4.69-9.25,9.43-9.08,16.63-12.67l4.36-3.68C1041.48,911,1045.1,906.9,1048.05,892.46Z"/><path class="cls-51" d="M915.78,1008.28c5-3.81,14.72-4.52,21.82-7.44,11.71-4.81,25.67-12.08,37.53-15.37,1.82-7.69,28.4-48.34,34.22-55.79,4.12.34,11.25,5.3,15.44,9.82-7.76,16.4-13.06,39-21.57,53-1,1.66-2.16,6.59-4.88,10.3s-12.65,10.45-16.64,12.91c-8.77,5.42-29.1,19.29-45,25.58-11.71,4.61-12.07-4.79-16.36-9C914.72,1020.29,905.86,1015.87,915.78,1008.28Z"/><path class="cls-52" d="M857.89,982.16c-22.21-2.52-22.27,34.1-14.54,51.34,20.1,44.85,7.1,51.79,8.94,72.23l-.41,8.23c19.1,28.44,74.45,26.22,81.17,5.67-.33-1.17-.59-5.81-1-7.6-20.14,19.26-49.31,14.16-66.55,3.88-1.59-7.55-.62-10.91.41-14,13.87-14.93,48.14-9.57,56.47-50.56,2.42-11.89.59-25.16-7-34.6-3.66-4.53-12.42-4.1-17.33-10.93-8,1.89-22.93-.76-24.72-4-.62-1.14,2.54-11.16,2-12.38C861.58,983.34,866,983.07,857.89,982.16Z"/><path class="cls-53" d="M866.44,994.3c0,7.49,27.73,9.05,35.71,3.1l-.22-1.77c-1.07-11.13-2.56-19.91-.25-28.48,4.55.79,14.81-1.09,15.37-2.71-32.48-15.39-68.24-24-69.75-12,4.59,7.34,12.92,11.37,17.65,15.74,1.25,1.16,2.66,3.87,3.51,6.71h0C868.78,980.76,867.92,986.66,866.44,994.3Z"/><path class="cls-33" d="M916.93,964.6c-2,2.09-20,.47-21.38.85-12.86,3.72-27.12,6-30.6,2.73-4.73-4.37-13.06-8.4-17.65-15.74-7.34-11.74-9.89-26.33-.58-39.1,16.18-22.2,51-16.93,60.21,1.72,3.78,7.65,1.62,8.87,3.28,14.2,3.06,9.82,3.31,5.79,6.11,21.8C917.39,957.17,918.25,963.21,916.93,964.6Z"/><path class="cls-54" d="M868.86,982.48c.73,6.64,19.42,11.32,30.75,8.68,1.21-.29,2-.51,2.4-1.29,1.67.92,6.21,7.47,6.72,10.73-9.79,9.45-40.75,3.91-44.51-7.15C863.32,990.8,862.5,985.81,868.86,982.48Z"/><path class="cls-55" d="M807.78,974.53c-15.42,18.59-21.31,47-11,60,9.38,11.75,28.37,15.53,24.22,25.3-3.43,8.07-13,17.58,1.45,26,7.42,4.33,25.77,16.32,57,.69,30.44-15.24,59.5-49.77,28.27-73-32.88-24.39-17.51-35-5.18-63,6.52-14.81,10.19-42,1.43-49.71-15-13.3-21.52.29-34.45-2.64-24.66-5.6-42.28,6.56-50.43,26.12C811.81,941.76,820,959.75,807.78,974.53Z"/><path class="cls-6" d="M832.15,649.33c1-7.29-1-11.69,2.59-15.81,2.3-2.63,9.58-6,12.61-7.15,5.89-2.22,12.9-1.52,20.09,2.64l207.75,121.43c16.73,9.69,28.1,34.53,25.36,55.43L1086.3,910.8c-.85,6.48-3.26,14.83-8.78,19.6-3.94,3.4-10.53,6.92-15.16,7.51s-6-3.7-11.35-6.79L843.26,809.69c-16.75-9.7-28.09-34.53-25.35-55.43Z"/><path class="cls-7" d="M826.52,652.67c2.74-20.91,18.54-30,35.29-20.33l207.75,121.43c16.73,9.69,28.09,34.53,25.35,55.43l-14.24,104.93c-2.74,20.9-18.56,30-35.29,20.32L837.63,813c-16.75-9.69-28.09-34.53-25.35-55.42Z"/><path class="cls-56" d="M826.52,652.67c2.74-20.91,18.54-30,35.29-20.33l207.75,121.43c16.73,9.69,28.09,34.53,25.35,55.43l-1.33,9.85a54.14,54.14,0,0,0-5.61-3.74L825.29,661.76Z"/><path class="cls-9" d="M863.19,716.92c21.16,4.84,37.41,30,36.3,56.27s-19.16,43.59-40.32,38.75-37.41-30-36.3-56.27S842,712.08,863.19,716.92Z"/><path class="cls-57" d="M862.27,738.82c11.4,2.61,20.16,16.19,19.57,30.33S871.5,792.65,860.09,790s-20.17-16.19-19.57-30.34,10.34-23.49,21.75-20.88Zm-.51,12c-6.06-1.39-11.23,3.58-11.55,11.09s4.33,14.73,10.39,16.12,11.23-3.59,11.55-11.1S867.82,752.21,861.76,750.83Z"/><path class="cls-9" d="M912.18,767.42c.73-5.58,4.94-7.95,9.4-5.28l135.66,76.92c4.45,2.66,7.48,9.36,6.74,14.93l-1.41,11c-.74,5.57-5,7.94-9.4,5.27L917.51,793.39c-4.46-2.67-7.48-9.36-6.75-14.94Z"/><path class="cls-9" d="M907,808c.43-3.29,2.91-4.69,5.55-3.12l80.11,45.42c2.63,1.58,4.41,5.53,4,8.82l-.84,6.52c-.43,3.29-2.92,4.69-5.55,3.12l-80.1-45.42c-2.64-1.58-4.42-5.53-4-8.82Z"/><path class="cls-7" d="M849.19,643.46c4.61,1,8.15,6.54,7.91,12.26s-4.18,9.5-8.79,8.45-8.15-6.55-7.91-12.27S844.57,642.4,849.19,643.46Z"/><path class="cls-7" d="M870.19,655.52c4.61,1.05,8.15,6.55,7.91,12.26s-4.18,9.5-8.79,8.45-8.15-6.55-7.91-12.27S865.58,654.46,870.19,655.52Z"/><path class="cls-7" d="M892.91,668.77c4.61,1.05,8.16,6.54,7.91,12.26s-4.17,9.5-8.79,8.45-8.15-6.55-7.91-12.27S888.3,667.71,892.91,668.77Z"/><path class="cls-2" d="M1224.74,505.79c-.8.13-1.61.33-2.42.49-37.56,7.2-78.57,39.79-92.89,75.32L1140,596.82a95.72,95.72,0,0,1,13.3-22.71c1-1.23,2-2.44,3-3.64,17.75-21.25,44.44-38.83,71.28-45.81.53-.14,1-.29,1.58-.41,19-4.63,44.58-4.94,56.64,12.48l-10.53-15.22C1264.52,506.07,1241.73,503,1224.74,505.79Z"/><path class="cls-2" d="M1306.41,502.58q.49.8,1,1.62c.27.48.52,1,.77,1.46s.56,1.12.82,1.69.45,1,.66,1.55.46,1.16.67,1.74.38,1.08.55,1.63.37,1.2.54,1.82.29,1.1.42,1.66.29,1.33.42,2,.21,1.13.3,1.7.2,1.39.27,2.09.13,1.14.18,1.71c.07.86.11,1.73.14,2.6,0,.53,0,1,.05,1.58,0,1,0,2-.07,3,0,.44,0,.87,0,1.31-.1,1.62-.27,3.27-.5,4.94-.06.43-.14.86-.21,1.29-.2,1.3-.43,2.6-.71,3.92-.13.6-.25,1.2-.39,1.81-.18.77-.38,1.55-.58,2.33s-.38,1.42-.59,2.13-.48,1.58-.73,2.38-.47,1.46-.73,2.19-.58,1.61-.88,2.42-.56,1.48-.86,2.23-.69,1.65-1,2.48c-.44,1-.87,2-1.36,3.09-.79,1.69-1.63,3.39-2.51,5.08s-1.79,3.35-2.75,5l10.53,15.22c1.91-3.31,3.68-6.7,5.26-10.09.26-.54.5-1.08.74-1.61s.41-1,.62-1.49c.36-.82.71-1.64,1-2.46s.58-1.5.87-2.25.6-1.61.87-2.4.5-1.47.73-2.21.5-1.58.73-2.36.4-1.44.59-2.15.4-1.55.58-2.32c.07-.31.17-.64.24-.95s.09-.57.15-.86c.28-1.32.52-2.63.72-3.92.06-.43.14-.87.2-1.29.23-1.67.4-3.32.5-4.94,0-.07,0-.14,0-.21,0-.37,0-.73,0-1.09.05-1,.08-2,.07-3,0-.53,0-1.06,0-1.58,0-.88-.07-1.74-.14-2.6,0-.23,0-.47,0-.71s-.09-.67-.13-1c-.08-.7-.17-1.4-.28-2.09s-.19-1.14-.29-1.7-.28-1.35-.43-2c-.07-.3-.12-.6-.19-.89s-.16-.51-.23-.77c-.17-.62-.35-1.22-.54-1.82s-.35-1.09-.55-1.63-.43-1.16-.67-1.74c-.12-.31-.23-.63-.36-.94s-.2-.4-.3-.61c-.26-.57-.54-1.13-.82-1.69s-.5-1-.77-1.46-.63-1.08-1-1.62c-.19-.31-.36-.64-.56-.95l-.61-.9-10.53-15.22C1305.65,501.33,1306,502,1306.41,502.58Z"/><path class="cls-58" d="M1245.75,479.6c-56.09,4.76-120.76,49.78-144.43,100.56A112,112,0,0,0,1097,591l32.48-9.38c.52-1.28,1-2.61,1.69-4,16.73-35.89,62.42-67.7,102.06-71.06s58.22,23,41.49,58.88q-1,2.09-2,4.14l26.57,3.43c1.91-3.31,3.68-6.7,5.26-10.09C1328.14,512.16,1301.88,474.84,1245.75,479.6Z"/><path class="cls-59" d="M1273.29,519.18c-13.6-20-51.21-17.19-77.4-4.77-32.35,15.35-57,40.47-68.87,64.67,0,0-29.33,9.75-30.07,11.9l32.48-9.38c.52-1.28,1-2.61,1.69-4,16.73-35.89,62.42-67.7,102.06-71.06C1251.6,505,1265.4,509.93,1273.29,519.18Z"/><path class="cls-2" d="M1297.58,569.91s-24.23-1.68-24.94-.31l26.57,3.43c1.91-3.31,3.68-6.7,5.26-10.09,12.38-26.57,11.08-49.44-1-64.53C1322.34,528.18,1299.49,566.61,1297.58,569.91Z"/><path class="cls-2" d="M1140,596.84c0-.06-9.62-13.93-10.53-15.24-11.54,26.82-6.24,37.68,11.72,55.21a30.55,30.55,0,0,1-2.11-3.58c-.1-.22-.21-.43-.31-.65C1133.4,621.34,1135.48,608,1140,596.84Z"/><path class="cls-2" d="M1309.74,588.25,1299.21,573c-24.55,42.26-153.53,118.76-198.64,69.34l10.53,15.22c10.56,15.27,31.24,23.52,59.47,21.13q4.88-.42,9.83-1.23c1.14-.19,2.29-.47,3.43-.69,2.48-.47,4.87-.93,7.32-1.52a174,174,0,0,0,26.91-9c.39-.17.78-.37,1.17-.55,32.12-14,62.9-37.56,83.4-66.53.63-.9,1.31-1.78,1.91-2.68Q1307.32,592.41,1309.74,588.25Z"/><path class="cls-60" d="M1272.64,569.6c-18.16,34.14-61.89,63.69-100,66.92s-56.78-21.09-43.18-54.92L1097,591c-15.31,45.16,11,76.93,63.09,72.52,52.37-4.45,112.15-44,139.17-90.47Z"/><path class="cls-2" d="M1160.64,661.22C1076.4,667.26,1097,591,1097,591c-15.31,45.16,11,76.93,63.09,72.52,52.37-4.45,112.15-44,139.17-90.47C1299.21,573,1245.59,654.6,1160.64,661.22Z"/><path class="cls-61" d="M202.76,427.57a54.78,54.78,0,0,0-9.3-33.79c-12.14-18-32.33-31.7-51.82-40.75-40.49-18.85-93.95-30.73-104.93,24.22.37-.76.87-1.46,1.31-2.19,5.75-9.55,15.61-14.48,26.17-16.87a75.11,75.11,0,0,1,17.24-1.83c.59,0,1.17,0,1.76,0,17.3.35,35,5.37,50.63,12.61,19.41,9,39.21,23.36,51.31,41.27a74,74,0,0,1,5,8.51c4.17,8.38,5.91,16.36,5.4,23.54h0Z"/><path class="cls-62" d="M66.35,450.64c-.6-.39-1.16-.81-1.74-1.21-2.68-1.83-5.28-3.71-7.83-5.65-.64-.48-1.29-1-1.92-1.46q-4.55-3.54-8.8-7.31c-.86-.76-1.7-1.54-2.55-2.32s-1.95-1.8-2.89-2.72-1.8-1.79-2.69-2.69-1.83-1.86-2.71-2.81c-.68-.72-1.31-1.45-2-2.17-1.5-1.67-2.94-3.36-4.34-5.08-.56-.69-1.13-1.37-1.67-2.07-1.83-2.33-3.6-4.69-5.23-7.1C6.38,384.9,3.54,363.11,11.61,346.66L4.39,361.4c-8.07,16.45-5.24,38.24,10.4,61.38,1.63,2.41,3.39,4.77,5.22,7.11.55.7,1.12,1.38,1.68,2.07,1.39,1.71,2.84,3.4,4.33,5.07.38.41.7.84,1.08,1.25s.6.62.89.93c.89.94,1.8,1.87,2.71,2.8s1.78,1.81,2.69,2.7,1.92,1.81,2.9,2.71c.63.59,1.24,1.2,1.89,1.78.21.19.45.36.66.55q4.24,3.76,8.8,7.31c.24.19.45.39.69.58.4.3.82.57,1.22.88q3.83,2.89,7.83,5.65c.31.21.6.44.91.65l.83.56h0Z"/><path class="cls-63" d="M221.64,393.37c-31.07-46-101-80.05-156.11-76S-9.06,362.05,22,408.05c10.84,16,26.36,30.59,44.34,42.59l17-14.13c-13.06-8.62-24.3-19.08-32.09-30.62-22-32.51-8.2-61.21,30.75-64.07s88.34,21.19,110.31,53.7c7.76,11.49,11.07,22.48,10.4,32.05l33.62,10.37C237.13,424.58,232.43,409.33,221.64,393.37Z"/><path class="cls-64" d="M220,393.26c9.8,14.52,12.41,27.77,12.27,40.1-4-.74-17.81-3.54-29.53-5.79l33.62,10.37c.75-13.36-3.95-28.61-14.74-44.57-27.42-40.59-85-71.83-136.12-75.85C136.18,322.07,192.89,353.11,220,393.26Z"/><path class="cls-65" d="M82.05,341.82a93.13,93.13,0,0,1,13.76.09c-5.25-.48-10.39-.19-15.39-.2-40.94,0-68.92,48.26-3.36,95.64,0,0-11,13.08-10.71,13.29l17-14.13c-13.06-8.62-24.3-19.08-32.09-30.62C29.33,373.38,43.1,344.68,82.05,341.82Z"/><path class="cls-66" d="M202.76,427.57l-7.23,14.74a30.53,30.53,0,0,1-3,11.33l7.23-14.73A30.72,30.72,0,0,0,202.76,427.57Z"/><path class="cls-66" d="M226,463.89c-9.9,11.37-24.86,17-39.47,19.2l-2.36.34c-24.82,3.2-51.92-2.19-74.83-10.79a210.56,210.56,0,0,1-42.95-22l-7.23,14.74a210.64,210.64,0,0,0,43,22c.31.11.62.26.93.38,22.71,8.42,49.4,13.53,73.9,10.4,15.41-2,31.36-7.53,41.83-19.54a43,43,0,0,0,5.61-8.16c.17-.32.33-.65.49-1l7.23-14.74A44.19,44.19,0,0,1,226,463.89Z"/><path class="cls-67" d="M236.38,437.94l-33.62-10.37c-1.28,17.53-15.93,30.17-41.15,32S107,452.09,83.39,436.51l-17,14.13c33.64,22.52,75.87,36.05,111.78,33.41C214.19,481.4,235,463.11,236.38,437.94Z"/><path class="cls-68" d="M236.38,437.94s-1.57,39.81-59.39,44.43c-53.19,4.25-110.64-31.73-110.64-31.73,33.64,22.52,75.87,36.05,111.78,33.41C214.19,481.4,235,463.11,236.38,437.94Z"/></g></g></g></svg>