<?xml version="1.0" encoding="UTF-8"?>
<svg width="12px" height="12px" viewBox="0 0 470 465" version="1.1" xmlns="http://www.w3.org/2000/svg">
    <title>Group 15</title>
    <desc>Created with Sketch.</desc>
    <g id="Cohort-3.0" stroke="none" stroke-width="1" fill="none" fill-rule="evenodd">
        <g id="Group-15" transform="translate(0.000000, 1.616546)">
            <path
                d="M208.935831,60.4667829 L208.92859,67.276032 L209.000001,234.383452 C209.004216,245.426166 217.957286,254.375819 229,254.375819 L308.132685,254.379355 C333.592253,255.198509 364.539231,255.306945 400.97362,254.704662 C401.276737,254.699651 401.579935,254.702941 401.882873,254.714527 C411.048968,255.065085 418.195373,262.779858 417.844815,271.945954 C413.574365,383.605855 321.705361,463.383454 209,463.383454 C93.5724873,463.383454 1.42108547e-13,369.810967 1.42108547e-13,254.383454 C1.42108547e-13,143.889408 81.5290968,53.5375634 190.109375,46.0061175 C190.429368,45.9839218 190.7499,45.9703261 191.070624,45.9653449 C199.892466,45.8283342 207.323576,52.0930407 208.935831,60.4667829 Z"
                id="Combined-Shape-Copy" fill="#7E848C"></path>
            <path
                d="M260,188.383454 L260,15.5399001 C260.00098,15.14013 260.017349,14.740541 260.049072,14.3420209 C260.731737,5.7660476 268.237346,-0.632743517 276.813319,0.0499209591 C378.648219,8.15618087 459.918311,89.2568435 468.288775,191.017089 C468.324778,191.454773 468.342802,191.89375 468.342802,192.332911 C468.342802,201.189557 461.169417,208.370768 452.31574,208.383454 L280,208.383454 C268.954305,208.383454 260,199.429149 260,188.383454 Z"
                id="Combined-Shape-Copy-2" stroke="#3F4A56" stroke-width="3" fill="#C7C9CA" stroke-dasharray="6"></path>
        </g>
    </g>
</svg>